<?xml version="1.0" standalone="no"?><!DOCTYPE svg PUBLIC "-//W3C//DTD SVG 1.1//EN" "http://www.w3.org/Graphics/SVG/1.1/DTD/svg11.dtd"><svg t="1750940725704" class="icon" viewBox="0 0 1408 1024" version="1.1" xmlns="http://www.w3.org/2000/svg" p-id="5082" xmlns:xlink="http://www.w3.org/1999/xlink" width="275" height="200"><path d="M1387.52 173.12C1329.152 33.344 1294.208 0 1294.208 0s32.128 80.896-19.584 140.16c-51.776 59.392-276.864 80.32-341.248 244.352-20.16 51.264-29.888 93.12-34.176 126.08-36.48-190.272-125.632-397.12-381.12-435.392a840.32 840.32 0 0 0-124.352-10.112c-167.552 0-218.048 66.048-366.592 66.048-8.64 0-17.728-0.256-27.136-0.704 0 0 165.824 46.656 243.328 235.008 97.344 236.608 359.168 470.464 510.144 507.328 96 23.424 170.24 61.184 210.368 128.896 1.024 1.792 2.688 2.56 4.288 2.56 3.008 0 5.952-2.624 5.056-6.336a1743.744 1743.744 0 0 0-32.704-119.68 176 176 0 0 1-13.312-43.968l-43.264-103.616c11.136 24.96 43.264 103.616 43.264 103.616a133.76 133.76 0 0 1-0.768-23.424 184.128 184.128 0 0 1 129.984-166.528c37.12-11.52 79.744-22.272 123.648-39.36 100.672-39.168 290.56-233.088 207.488-431.808z m-610.944 604.864c-43.264-10.56-129.728-57.28-230.72-154.304a1086.592 1086.592 0 0 1-124.16-141.696c-38.144-52.48-67.84-104.128-88.192-153.6a545.664 545.664 0 0 0-14.912-33.152c44.864 21.696 87.296 45.44 126.72 71.232a986.048 986.048 0 0 1 158.528 128c42.048 41.92 80.192 88.32 113.472 137.6 28.8 42.88 54.848 89.152 77.312 137.792l6.016 14.4a809.664 809.664 0 0 0-24.064-6.272z m-510.08-611.84c95.232 11.84 497.28 77.248 617.408 564.48-91.968-199.936-265.216-425.664-617.408-564.48zM1127.68 431.488c-59.648 52.288-157.376 119.296-187.2 193.152-21.568 53.44-30.72 91.072-32.32 114.88l-0.192 6.208a62.4 62.4 0 0 1 0-5.696c0.448-38.528 0.768-146.368 2.432-160.832 3.84-33.728-11.2-68.544 106.496-151.936 66.816-47.36 190.784-136.576 278.464-216.832-12.16 49.792-108.096 168.768-167.68 221.056z" fill="#000000" p-id="5083"></path></svg>